PathFileType	4	(X/Y/Z)	./resultDataOpenSim/trcMotMarkerGrf/sub09/qtm-01-01.trc
DataRate	CameraRate	NumFrames	NumMarkers	Units	OrigDataRate	OrigDataStartFrame	OrigNumFrames
250.000000	250.000000	10	24	m	250.000000	1	488
Frame#	Time	L.Toe.Tip			R.Toe.Tip			L.Ankle.Lat			R.Ankle.Lat			L.Ankle.Med			R.Ankle.Med			L.Heel			R.Heel			L.Knee.Lat			R.Knee.Lat			L.Knee.Med			R.Knee.Med			L.Thigh.Upper			R.Thigh.Upper			L.ASIS			R.ASIS			V.Sacral			L.Acromium			R.Acromium			C7			L.Elbow			R.Elbow			L.Wrist.Lat			R.Wrist.Lat
		X1	Y1	Z1	X2	Y2	Z2	X3	Y3	Z3	X4	Y4	Z4	X5	Y5	Z5	X6	Y6	Z6	X7	Y7	Z7	X8	Y8	Z8	X9	Y9	Z9	X10	Y10	Z10	X11	Y11	Z11	X12	Y12	Z12	X13	Y13	Z13	X14	Y14	Z14	X15	Y15	Z15	X16	Y16	Z16	X17	Y17	Z17	X18	Y18	Z18	X19	Y19	Z19	X20	Y20	Z20	X21	Y21	Z21	X22	Y22	Z22	X23	Y23	Z23	X24	Y24	Z24

1	0	-1.5064588	0.036763337	0.029448706	-0.85228101	0.10863775	0.1661308	-1.6540614	0.089551261	0.00047914611	-1.0011643	0.073513419	0.17863809	-1.6240113	0.10428686	0.093992017	-0.99083812	0.11714588	0.090506844	NaN	NaN	NaN	-1.0437003	0.03134336	0.11759846	-1.4885926	0.47399204	-0.062335018	-1.1307586	0.51380343	0.22890554	-1.4849214	0.47484834	0.064069599	-1.1147166	0.49968803	0.10220742	-1.3629367	0.87440112	-0.10649668	-1.3267796	0.865216	0.26377908	-1.2556869	0.94613639	-0.053605488	-1.2452735	0.9500217	0.18622774	-1.4119902	1.0080968	0.07489352	-1.2295081	1.3956986	-0.098266302	-1.2710243	1.4177064	0.22749905	-1.3117853	1.4591631	0.062956816	-1.3171984	1.0258967	-0.16286585	-1.4093703	1.083896	0.31185	-1.0727225	0.90778097	-0.13679915	-1.3033873	0.84030124	0.34916472
2	0.004	-1.5063814	0.036756347	0.029376302	-0.83879447	0.11269724	0.16593405	-1.6534526	0.090544978	1.2124044e-05	-0.98709833	0.074236001	0.17899302	-1.6230674	0.10524786	0.093490651	-0.97757508	0.11809715	0.090827155	NaN	NaN	NaN	-1.028699	0.031121668	0.11854461	-1.4848591	0.4737622	-0.062484724	-1.1241913	0.51239732	0.22883962	-1.4809981	0.47454755	0.064005464	-1.1084823	0.49830495	0.10191547	-1.3573947	0.87344227	-0.10617535	-1.32014	0.86361925	0.26392071	-1.2497737	0.94497063	-0.053660688	-1.2387558	0.94869687	0.18622589	-1.4058783	1.006708	0.075317886	-1.223627	1.3945964	-0.097958767	-1.2652075	1.4163351	0.22786237	-1.3059472	1.4579867	0.063342168	-1.3107356	1.0245595	-0.16251008	-1.4034175	1.0824578	0.31175675	-1.0658463	0.90737841	-0.13621893	-1.2973964	0.83885529	0.3492214
3	0.008	-1.506292	0.036746683	0.029302639	-0.82562461	0.11658256	0.16572168	-1.6528058	0.091615458	-0.00049689572	-0.97322284	0.075048006	0.17934658	-1.6221488	0.10621843	0.092974659	-0.96469675	0.1190104	0.091104501	NaN	NaN	NaN	-1.0140912	0.030955049	0.11944979	-1.4808766	0.47348936	-0.062642336	-1.1175498	0.51105452	0.22874126	-1.4769252	0.47424427	0.063926321	-1.1022806	0.49694604	0.10162561	-1.3518092	0.87250399	-0.10584534	-1.3133812	0.86205879	0.2640858	-1.2438349	0.94384997	-0.053722209	-1.2321824	0.94741519	0.18623537	-1.3997251	1.0053444	0.075783568	-1.2177104	1.3934982	-0.097651346	-1.2593482	1.4149985	0.2282129	-1.3000989	1.4568354	0.063734704	-1.3042564	1.0232519	-0.1620886	-1.397529	1.0810474	0.31168985	-1.0589499	0.90694412	-0.13564107	-1.2914167	0.83741854	0.34927949
4	0.012	-1.506184	0.036736989	0.029224823	-0.81296435	0.12016797	0.16549572	-1.6521047	0.092790465	-0.0010606074	-0.95952258	0.076056754	0.17968823	-1.6212623	0.10720586	0.092430198	-0.9523959	0.11985409	0.091306597	NaN	NaN	NaN	-1.0001249	0.03088276	0.12027096	-1.4763527	0.47318407	-0.062822675	-1.1107376	0.50982044	0.22863305	-1.4726344	0.47393386	0.063820027	-1.0961145	0.49562971	0.10134734	-1.3461462	0.87159051	-0.10550194	-1.3064401	0.86054115	0.26427508	-1.2378339	0.94279016	-0.053794194	-1.2255321	0.94618386	0.18625825	-1.3935115	1.0040112	0.076299498	-1.2117205	1.3924112	-0.097336909	-1.2534146	1.4137044	0.22855476	-1.294222	1.455714	0.064139188	-1.2977696	1.0219902	-0.16163904	-1.3916697	1.0796714	0.31164499	-1.0520397	0.906465	-0.13506867	-1.2854373	0.83599777	0.34933595
5	0.016	-1.5060563	0.036732511	0.029139987	-0.80090639	0.12339024	0.16525559	-1.6513439	0.094060542	-0.0016716536	-0.94592856	0.077300998	0.17998816	-1.6203915	0.10822759	0.091852806	-0.94065472	0.12061617	0.091425266	NaN	NaN	NaN	-0.98689776	0.030884001	0.1209654	-1.4711139	0.4728901	-0.063032912	-1.10374	0.50869439	0.22856206	-1.4681144	0.47361082	0.06368035	-1.0899723	0.49437141	0.10109413	-1.3403973	0.87069701	-0.10514185	-1.2993226	0.85906298	0.26448051	-1.2317445	0.94178056	-0.053878296	-1.2188331	0.94499853	0.18628918	-1.3872515	1.0026982	0.076848514	-1.2056499	1.3913496	-0.09699839	-1.247406	1.4124422	0.22889878	-1.2883053	1.454609	0.064558491	-1.2913115	1.020786	-0.16123718	-1.38577	1.0783205	0.31154516	-1.0452001	0.90594391	-0.13451854	-1.2794458	0.83460026	0.34938554
6	0.02	-1.5059112	0.036735281	0.029047127	-0.78948754	0.12623591	0.16495095	-1.6505137	0.095408047	-0.0023241561	-0.9326585	0.078597403	0.18018585	-1.619498	0.10930788	0.091242885	-0.92933123	0.12130886	0.091475572	NaN	NaN	NaN	-0.97437955	0.030868529	0.12150033	-1.4653919	0.47261264	-0.063252069	-1.0966481	0.50762394	0.22855017	-1.4633516	0.47326028	0.063513023	-1.0838245	0.49318788	0.10087566	-1.3345602	0.86981871	-0.10476221	-1.2920657	0.85762636	0.26469923	-1.2255534	0.94080081	-0.053972348	-1.2121229	0.94386169	0.18632154	-1.3809566	1.0013912	0.0774148	-1.1995303	1.3903278	-0.096628225	-1.2413263	1.4112045	0.229253	-1.2823455	1.4535099	0.064994267	-1.2849002	1.019658	-0.16089914	-1.3798456	1.076991	0.31121051	-1.0385131	0.90538562	-0.13400728	-1.2734238	0.83323107	0.34942519
7	0.024	-1.5057505	0.036743281	0.028946459	-0.77872935	0.12870332	0.16450701	-1.6496129	0.096820159	-0.003016548	-0.92022943	0.079601528	0.18021355	-1.6185398	0.11046213	0.090599359	-0.91841881	0.12192204	0.091458924	NaN	NaN	NaN	-0.96254148	0.030727751	0.12184784	-1.4597255	0.47230656	-0.063442183	-1.0895582	0.50656347	0.22859153	-1.4583686	0.47285441	0.063330002	-1.0776287	0.4920974	0.10069694	-1.3286306	0.86894964	-0.10436493	-1.2846951	0.85624019	0.26492891	-1.2192678	0.93983833	-0.054068779	-1.2054268	0.94277128	0.18634785	-1.3746238	1.000085	0.077993977	-1.1934129	1.3893483	-0.096239709	-1.2351866	1.4099917	0.22962012	-1.2763501	1.452421	0.065444631	-1.2785236	1.0186199	-0.16057424	-1.3739758	1.0756959	0.31049446	-1.0319544	0.90479248	-0.13352341	-1.2673575	0.83189266	0.34945761
8	0.028	-1.5055758	0.036754289	0.028837792	-0.76864604	0.13077685	0.16390917	-1.6486547	0.098298371	-0.0037498904	-0.90900777	0.080110553	0.18005952	-1.617503	0.11170094	0.089918528	-0.90816345	0.12238511	0.09133875	NaN	NaN	NaN	-0.95148047	0.030380883	0.12198747	-1.4544257	0.47193812	-0.063590152	-1.0824721	0.50552433	0.22866987	-1.4532094	0.47238127	0.063132182	-1.0713344	0.49111105	0.10055982	-1.3225998	0.86808297	-0.10395699	-1.2772135	0.85491582	0.26516452	-1.2129053	0.93889478	-0.054154684	-1.1987401	0.94171906	0.18636313	-1.3682466	0.99878843	0.078583426	-1.1873229	1.3884011	-0.095849205	-1.2290137	1.4088009	0.2299955	-1.2703279	1.4513451	0.065906024	-1.2721543	1.0176521	-0.16019299	-1.3681494	1.0744441	0.30953702	-1.0254389	0.90416459	-0.13304088	-1.2612512	0.83058624	0.34948816
9	0.032	-1.5053879	0.036768742	0.028720675	-0.75924772	0.13242352	0.16321859	-1.6476416	0.099848889	-0.0045312226	-0.89897205	0.080184366	0.1797783	-1.6164069	0.11302829	0.089191179	-0.89877957	0.12262083	0.091079515	NaN	NaN	NaN	-0.94132908	0.029808069	0.12191763	-1.4493724	0.47151061	-0.063720522	-1.0752653	0.50456245	0.22877534	-1.4478493	0.47187077	0.062909469	-1.0648922	0.4902258	0.10046041	-1.3164589	0.86721834	-0.10355037	-1.2696584	0.85365284	0.2654016	-1.2064741	0.93797877	-0.05421602	-1.1919877	0.94070541	0.18637363	-1.3618184	0.99752016	0.07917535	-1.1812513	1.3874751	-0.095466609	-1.2228222	1.4076294	0.23037304	-1.2642797	1.4502779	0.066379376	-1.2657735	1.0167138	-0.15972487	-1.3622416	1.0732279	0.30873643	-1.0189263	0.90349944	-0.13255055	-1.2551115	0.8293142	0.34951672
10	0.036	-1.5051847	0.036787289	0.028595304	-0.7505459	0.13360172	0.16250992	-1.6465528	0.10147197	-0.00537574	-0.88991792	0.079973049	0.17941087	-1.6152747	0.1144312	0.088407261	-0.89021011	0.12260816	0.090687126	NaN	NaN	NaN	-0.9320418	0.029114195	0.1216155	-1.4442977	0.47103587	-0.063862413	-1.0677329	0.50374019	0.22891314	-1.4422328	0.47135678	0.062664614	-1.0582617	0.4894273	0.1003829	-1.3102051	0.86635622	-0.10315652	-1.2621071	0.85244181	0.26564024	-1.1999695	0.93709237	-0.054245203	-1.1850077	0.93974654	0.18639425	-1.3553258	0.9963056	0.079764861	-1.1751791	1.3865698	-0.095094999	-1.2165978	1.4064841	0.23075669	-1.2582011	1.4492221	0.066873018	-1.2593867	1.0157865	-0.15919948	-1.3561582	1.0720367	0.30836401	-1.0124298	0.90279476	-0.1320608	-1.2489241	0.82808258	0.34954042
